<mxfile host="app.diagrams.net" modified="2024-04-23T02:58:14.933Z" agent="Mozilla/5.0 (Windows NT 10.0; Win64; x64) AppleWebKit/537.36 (KHTML, like Gecko) Chrome/120.0.0.0 Safari/537.36" etag="qg9nkqWRVJj-g4MWSbJ0" version="24.2.8" type="github">
  <diagram id="R2lEEEUBdFMjLlhIrx00" name="Page-1">
    <mxGraphModel dx="1051" dy="846" grid="1" gridSize="10" guides="1" tooltips="1" connect="1" arrows="1" fold="1" page="1" pageScale="1" pageWidth="850" pageHeight="1100" math="0" shadow="0" extFonts="Permanent Marker^https://fonts.googleapis.com/css?family=Permanent+Marker">
      <root>
        <mxCell id="0" />
        <mxCell id="1" parent="0" />
        <mxCell id="kbtxbaOu7Y_7nkQ4JSVY-1" value="Projetos" style="rounded=0;whiteSpace=wrap;html=1;" vertex="1" parent="1">
          <mxGeometry x="40" y="50" width="150" height="70" as="geometry" />
        </mxCell>
        <mxCell id="kbtxbaOu7Y_7nkQ4JSVY-3" value="Empregados" style="rounded=0;whiteSpace=wrap;html=1;" vertex="1" parent="1">
          <mxGeometry x="525" y="400" width="150" height="70" as="geometry" />
        </mxCell>
        <mxCell id="kbtxbaOu7Y_7nkQ4JSVY-4" value="Gerentes" style="rounded=0;whiteSpace=wrap;html=1;" vertex="1" parent="1">
          <mxGeometry x="35" y="400" width="160" height="70" as="geometry" />
        </mxCell>
        <mxCell id="kbtxbaOu7Y_7nkQ4JSVY-5" value="Departamentos" style="rounded=0;whiteSpace=wrap;html=1;" vertex="1" parent="1">
          <mxGeometry x="520" y="50" width="160" height="70" as="geometry" />
        </mxCell>
      </root>
    </mxGraphModel>
  </diagram>
</mxfile>
